<mxfile host="app.diagrams.net" agent="Mozilla/5.0 (X11; Linux x86_64) AppleWebKit/537.36 (KHTML, like Gecko) Chrome/134.0.0.0 Safari/537.36" version="27.0.3">
  <diagram name="Page-1" id="qD2Lgh58-2oUWOc1vqQ1">
    <mxGraphModel>
      <root>
        <mxCell id="0" />
        <mxCell id="1" parent="0" />
        <mxCell id="2" value="Typing Game Application" style="whiteSpace=wrap;strokeWidth=2;verticalAlign=top;" vertex="1" parent="1">
          <mxGeometry x="8" y="362" width="496" height="426" as="geometry" />
        </mxCell>
        <mxCell id="3" value="Singleplayer Mode" style="whiteSpace=wrap;strokeWidth=2;" vertex="1" parent="2">
          <mxGeometry x="43" y="46" width="193" height="54" as="geometry" />
        </mxCell>
        <mxCell id="4" value="Scoreboard" style="whiteSpace=wrap;strokeWidth=2;" vertex="1" parent="2">
          <mxGeometry x="68" y="213" width="143" height="54" as="geometry" />
        </mxCell>
        <mxCell id="5" value="Multiplayer Mode" style="whiteSpace=wrap;strokeWidth=2;" vertex="1" parent="2">
          <mxGeometry x="286" y="46" width="182" height="54" as="geometry" />
        </mxCell>
        <mxCell id="6" value="Live Leaderboard" style="whiteSpace=wrap;strokeWidth=2;" vertex="1" parent="2">
          <mxGeometry x="284" y="213" width="185" height="54" as="geometry" />
        </mxCell>
        <mxCell id="7" value="Player Stats" style="whiteSpace=wrap;strokeWidth=2;" vertex="1" parent="2">
          <mxGeometry x="66" y="342" width="146" height="54" as="geometry" />
        </mxCell>
        <mxCell id="8" value="Player Stats" style="whiteSpace=wrap;strokeWidth=2;" vertex="1" parent="2">
          <mxGeometry x="303" y="342" width="146" height="54" as="geometry" />
        </mxCell>
        <mxCell id="9" value="Tracks individual performance" style="curved=1;startArrow=none;endArrow=block;exitX=0.5;exitY=0.99;entryX=0.5;entryY=0;" edge="1" parent="2" source="3" target="4">
          <mxGeometry relative="1" as="geometry">
            <Array as="points" />
          </mxGeometry>
        </mxCell>
        <mxCell id="10" value="Real-time player interaction" style="curved=1;startArrow=none;endArrow=block;exitX=0.5;exitY=0.99;entryX=0.5;entryY=0;" edge="1" parent="2" source="5" target="6">
          <mxGeometry relative="1" as="geometry">
            <Array as="points" />
          </mxGeometry>
        </mxCell>
        <mxCell id="11" value="" style="curved=1;startArrow=none;endArrow=block;exitX=0.5;exitY=1;entryX=0.5;entryY=0;" edge="1" parent="2" source="4" target="7">
          <mxGeometry relative="1" as="geometry">
            <Array as="points" />
          </mxGeometry>
        </mxCell>
        <mxCell id="12" value="" style="curved=1;startArrow=none;endArrow=block;exitX=0.5;exitY=1;entryX=0.5;entryY=0;" edge="1" parent="2" source="6" target="8">
          <mxGeometry relative="1" as="geometry">
            <Array as="points" />
          </mxGeometry>
        </mxCell>
        <mxCell id="13" value="Frontend: Next.js" style="whiteSpace=wrap;strokeWidth=2;" vertex="1" parent="1">
          <mxGeometry x="123" y="8" width="182" height="54" as="geometry" />
        </mxCell>
        <mxCell id="14" value="Backend: Flask" style="whiteSpace=wrap;strokeWidth=2;" vertex="1" parent="1">
          <mxGeometry x="130" y="133" width="169" height="54" as="geometry" />
        </mxCell>
        <mxCell id="15" value="SocketIO Server" style="whiteSpace=wrap;strokeWidth=2;" vertex="1" parent="1">
          <mxGeometry x="328" y="258" width="177" height="54" as="geometry" />
        </mxCell>
        <mxCell id="16" value="Database" style="whiteSpace=wrap;strokeWidth=2;" vertex="1" parent="1">
          <mxGeometry x="150" y="258" width="129" height="54" as="geometry" />
        </mxCell>
        <mxCell id="17" value="REST API" style="curved=1;startArrow=none;endArrow=block;exitX=0.5;exitY=1;entryX=0.5;entryY=0;" edge="1" parent="1" source="13" target="14">
          <mxGeometry relative="1" as="geometry">
            <Array as="points" />
          </mxGeometry>
        </mxCell>
        <mxCell id="18" value="WebSocket" style="curved=1;startArrow=none;endArrow=block;exitX=0.94;exitY=1;entryX=0.45;entryY=0;" edge="1" parent="1" source="13" target="15">
          <mxGeometry relative="1" as="geometry">
            <Array as="points">
              <mxPoint x="397" y="98" />
              <mxPoint x="397" y="223" />
            </Array>
          </mxGeometry>
        </mxCell>
        <mxCell id="19" value="" style="curved=1;startArrow=none;endArrow=block;exitX=1;exitY=0.96;entryX=0.53;entryY=0;" edge="1" parent="1" source="14" target="15">
          <mxGeometry relative="1" as="geometry">
            <Array as="points">
              <mxPoint x="427" y="223" />
            </Array>
          </mxGeometry>
        </mxCell>
        <mxCell id="20" value="Database Operations" style="curved=1;startArrow=none;endArrow=block;exitX=0.5;exitY=1;entryX=0.5;entryY=0;" edge="1" parent="1" source="14" target="16">
          <mxGeometry relative="1" as="geometry">
            <Array as="points" />
          </mxGeometry>
        </mxCell>
        <mxCell id="21" value="" style="curved=1;startArrow=none;endArrow=block;exitX=0.22;exitY=1;entryX=0.21;entryY=0;" edge="1" parent="1" source="13" target="2">
          <mxGeometry relative="1" as="geometry">
            <Array as="points">
              <mxPoint x="95" y="98" />
              <mxPoint x="95" y="337" />
            </Array>
          </mxGeometry>
        </mxCell>
        <mxCell id="22" value="" style="curved=1;startArrow=none;endArrow=block;exitX=0.5;exitY=1;entryX=0.79;entryY=0;" edge="1" parent="1" source="15" target="2">
          <mxGeometry relative="1" as="geometry">
            <Array as="points">
              <mxPoint x="417" y="337" />
            </Array>
          </mxGeometry>
        </mxCell>
      </root>
    </mxGraphModel>
  </diagram>
</mxfile>
